<?xml version="1.0" encoding="UTF-8" standalone="no"?>
<!-- Created with Inkscape (http://www.inkscape.org/) -->

<svg
   width="160mm"
   height="50mm"
   viewBox="0 0 160 50"
   version="1.1"
   id="svg1"
   xml:space="preserve"
   xmlns="http://www.w3.org/2000/svg"
   xmlns:svg="http://www.w3.org/2000/svg"><defs
     id="defs1" /><g
     id="layer1"><g
       id="g15"
       transform="matrix(0.52709254,0,0,0.52709254,-104.48028,-265.69681)"><g
         id="g1"
         transform="translate(6.3259988,-4.1257941e-5)"><path
           fill="#ffffff"
           d="m 258.6,511.63 q 1.91,0.27 2.62,1.15 0.72,0.89 0.72,2.32 0,4.69 -5.04,4.35 l -2.38,-0.21 q -4.01,-0.34 -7.99,-0.54 -3.97,-0.2 -8.33,-0.2 h -3.06 q -0.81,10.06 -1.7,18.36 l 11.7,-0.21 q 2.52,0 3.37,0.89 0.85,0.88 0.85,2.38 0,2.31 -1.36,3.63 -1.36,1.33 -3.88,1.33 h -11.63 l -0.41,2.92 q -1.42,11.22 -6.08,15.98 -4.66,4.76 -12.82,4.76 -4.62,0 -8.5,-2 -3.88,-2.01 -5.71,-4.86 -0.75,-1.16 -0.75,-2.79 0,-1.63 0.78,-2.86 0.78,-1.22 1.94,-1.22 0.82,0 1.6,0.54 0.78,0.55 2,2.11 3.27,4.28 8.1,4.28 3.87,0 6.49,-3.16 2.62,-3.16 3.37,-9.96 l 0.4,-3.74 h -3.26 q -1.56,0 -2.69,-0.88 -1.12,-0.89 -1.12,-2.52 0,-2.11 1.09,-3.23 1.09,-1.12 3.2,-1.12 1.9,0 3.74,-0.07 0.81,-7.48 1.76,-18.16 -7.34,0.68 -10.33,2.38 -2.99,1.7 -2.99,5.04 0,2.31 1.36,4.42 0.4,0.61 0.4,1.22 0,1.22 -1.36,2.14 -1.36,0.92 -3.06,0.92 -1.83,0 -3.12,-1.09 -0.82,-0.68 -1.57,-2.79 -0.75,-2.1 -0.75,-4.69 0,-8.43 8.67,-12.24 8.67,-3.81 25.33,-3.81 11.56,0 20.4,1.23 m -3.8,56.71 q -2.59,0 -3.64,-2.72 -1.06,-2.72 -1.06,-8.7 0,-8.84 2.52,-16.8 0.61,-1.97 2.01,-2.89 1.39,-0.92 3.91,-0.92 1.36,0 1.9,0.34 0.54,0.34 0.54,1.29 0,1.09 -1.02,4.9 -0.68,2.72 -1.08,4.76 -0.41,2.04 -0.68,5.03 2.24,-5.85 5.03,-9.52 2.79,-3.67 5.47,-5.23 2.69,-1.57 4.93,-1.57 4.42,0 4.42,4.42 0,0.89 -0.61,4.29 -0.54,2.72 -0.54,3.4 0,2.38 1.7,2.38 1.9,0 4.89,-3 0.89,-0.88 1.84,-0.88 0.88,0 1.39,0.78 0.51,0.78 0.51,2.08 0,2.51 -1.36,3.94 -1.9,1.97 -4.45,3.37 -2.55,1.39 -5.41,1.39 -3.6,0 -5.47,-1.84 -1.87,-1.83 -1.87,-4.96 0,-1.02 0.2,-2.04 0.14,-1.36 0.14,-1.84 0,-1.08 -0.75,-1.08 -1.02,0 -2.69,2.27 -1.66,2.28 -3.29,6.02 -1.64,3.74 -2.66,7.89 -0.74,3.2 -1.73,4.32 -0.99,1.12 -3.09,1.12 m 35.02,-36.52 q -2.86,0 -4.29,-1.32 -1.43,-1.33 -1.43,-3.71 0,-2.38 1.87,-3.98 1.87,-1.59 4.66,-1.59 2.52,0 4.08,1.22 1.57,1.22 1.57,3.47 0,2.72 -1.77,4.32 -1.77,1.59 -4.69,1.59 m -0.55,36.52 q -4.42,0 -6.42,-3.13 -2.01,-3.13 -2.01,-8.29 0,-3.06 0.78,-7.86 0.78,-4.79 2.01,-8.94 0.61,-2.18 1.63,-2.99 1.02,-0.82 3.26,-0.82 3.47,0 3.47,2.31 0,1.7 -1.29,7.89 -1.63,7.48 -1.63,10.13 0,2.04 0.54,3.13 0.55,1.09 1.84,1.09 1.22,0 3.06,-1.7 1.83,-1.7 4.89,-5.37 0.82,-0.95 1.84,-0.95 0.88,0 1.39,0.81 0.51,0.82 0.51,2.25 0,2.72 -1.29,4.21 -6.73,8.23 -12.58,8.23 m 38.69,-15.5 q 0.89,0 1.4,0.81 0.51,0.82 0.51,2.25 0,2.72 -1.29,4.21 -2.52,3.06 -7.11,5.65 -4.59,2.58 -9.83,2.58 -7.14,0 -11.08,-3.88 -3.94,-3.87 -3.94,-10.6 0,-4.7 1.97,-8.74 1.97,-4.05 5.47,-6.43 3.5,-2.38 7.92,-2.38 3.95,0 6.33,2.35 2.38,2.34 2.38,6.36 0,4.69 -3.37,8.05 -3.36,3.37 -11.39,5.34 1.7,3.13 6.46,3.13 3.06,0 6.97,-2.14 3.91,-2.14 6.77,-5.61 0.81,-0.95 1.83,-0.95 m -17.13,-9.86 q -2.52,0 -4.25,2.92 -1.74,2.92 -1.74,7.07 v 0.14 q 4.02,-0.95 6.33,-2.86 2.31,-1.9 2.31,-4.42 0,-1.29 -0.71,-2.07 -0.72,-0.78 -1.94,-0.78 m 18.36,25.36 q -2.59,0 -3.64,-2.72 -1.05,-2.72 -1.05,-8.7 0,-8.84 2.51,-16.8 0.61,-1.97 2.01,-2.89 1.39,-0.92 3.91,-0.92 1.36,0 1.9,0.34 0.55,0.34 0.55,1.29 0,1.09 -1.02,4.9 -0.68,2.72 -1.09,4.76 -0.41,2.04 -0.68,5.03 2.24,-5.85 5.03,-9.52 2.79,-3.67 5.47,-5.23 2.69,-1.57 4.93,-1.57 4.42,0 4.42,4.42 0,2.65 -1.49,9.59 -1.29,5.92 -1.29,7.82 0,2.72 1.97,2.72 1.36,0 3.23,-1.67 1.87,-1.66 5,-5.4 0.81,-0.95 1.83,-0.95 0.89,0 1.4,0.81 0.51,0.82 0.51,2.25 0,2.72 -1.3,4.21 -2.92,3.61 -6.29,5.92 -3.36,2.31 -7.65,2.31 -3.46,0 -5.23,-2.01 -1.77,-2 -1.77,-5.81 0,-1.9 0.95,-6.8 0.89,-4.28 0.89,-5.92 0,-1.08 -0.75,-1.08 -0.89,0 -2.48,2.27 -1.6,2.28 -3.27,6.02 -1.66,3.74 -2.68,7.89 -0.75,3.2 -1.74,4.32 -0.98,1.12 -3.09,1.12 m 67.52,-15.5 q 0.89,0 1.4,0.81 0.51,0.82 0.51,2.25 0,2.72 -1.3,4.21 -2.78,3.4 -6.12,5.82 -3.33,2.41 -6.59,2.41 -5.17,0 -7.89,-6.05 -2.86,3.6 -5,4.83 -2.14,1.22 -5,1.22 -4.14,0 -6.83,-3.09 -2.69,-3.1 -2.69,-8.06 0,-5.44 2.32,-10.1 2.31,-4.66 6.35,-7.62 4.05,-2.95 9.08,-3.5 1.29,-13.19 4.93,-22.54 3.64,-9.35 9.56,-9.35 2.92,0 4.86,2.65 1.94,2.65 1.94,8.03 0,7.61 -3.74,17.81 -3.74,10.2 -10,20.95 0.27,3.94 1.19,5.64 0.92,1.7 2.35,1.7 1.83,0 3.74,-1.63 1.9,-1.63 5.1,-5.44 0.81,-0.95 1.83,-0.95 m -8.02,-42.1 q -1.29,0 -2.59,4.59 -1.29,4.59 -2.21,12.01 -0.91,7.41 -1.32,15.5 7.61,-16.59 7.61,-26.66 0,-2.58 -0.44,-4.01 -0.44,-1.43 -1.05,-1.43 m -19.59,50.73 q 1.3,0 2.59,-1.05 1.29,-1.06 3.26,-3.91 -0.68,-3.67 -0.68,-8.23 0,-1.63 0.14,-5.3 -3.74,1.15 -6.22,4.99 -2.49,3.85 -2.49,8.54 0,4.96 3.4,4.96 m 36.66,8.37 q -3.54,0 -5.41,-1.64 -1.87,-1.63 -1.87,-3.67 0,-1.77 1.29,-3.06 1.29,-1.29 3.81,-1.29 0.88,0 2.07,0.17 1.19,0.17 1.81,0.24 -0.07,-1.77 -0.79,-3.33 -0.71,-1.57 -1.8,-3.03 -1.09,-1.46 -2.04,-2.55 -2.11,4.01 -4.18,6.66 -2.07,2.66 -4.52,5.04 -1.23,1.22 -2.59,1.22 -1.08,0 -1.76,-0.78 -0.68,-0.78 -0.68,-1.94 0,-1.36 0.95,-2.52 l 0.88,-1.08 q 3.74,-4.63 5.65,-7.62 1.15,-1.97 2.72,-5.27 1.56,-3.3 3.06,-6.83 1.29,-3 5.37,-3 1.9,0 2.65,0.34 0.75,0.34 0.75,1.09 0,0.41 -0.27,1.29 -0.28,0.89 -0.75,1.77 -1.23,2.45 -1.23,4.15 0,1.02 0.72,2.24 0.71,1.23 2.21,3.06 2.17,2.86 3.3,4.87 1.12,2 1.12,4.38 0,0.68 -0.14,1.91 3.33,-1.3 7.82,-6.87 0.82,-0.95 1.84,-0.95 0.88,0 1.39,0.81 0.51,0.82 0.51,2.25 0,2.58 -1.29,4.21 -3.4,4.22 -6.49,5.75 -3.1,1.53 -7.65,1.66 -2.72,2.32 -6.46,2.32"
           id="path14"
           style="fill:#1ab8c0;fill-opacity:1" /><path
           fill="#a8f0e8"
           d="m 456.08,552.84 q 0.88,0 1.39,0.81 0.51,0.82 0.51,2.25 0,2.51 -1.29,4.21 -3.2,4.15 -7.92,6.53 -4.73,2.38 -10.65,2.38 -4.62,0 -8.02,-1.39 -3.4,-1.4 -5.2,-3.81 -1.8,-2.42 -1.8,-5.41 0,-4.49 3.6,-7.95 3.6,-3.47 10.34,-6.67 l -11.16,0.27 q -1.49,0.07 -2.27,-1.05 -0.79,-1.12 -0.79,-2.69 0,-1.63 0.79,-2.89 0.78,-1.25 2.14,-1.25 3.13,0 8.36,0.47 1.09,0.07 3.98,0.27 2.89,0.21 4.86,0.21 0.68,0 2.59,-0.55 0.34,-0.06 1.32,-0.34 0.99,-0.27 1.67,-0.27 1.09,0 1.8,0.95 0.71,0.96 0.71,2.93 0,2.17 -1.02,3.4 -1.02,1.22 -3.19,2.17 -6.19,2.66 -10.27,5.68 -4.08,3.03 -4.08,6.02 0,1.9 1.77,3.13 1.77,1.22 5.23,1.22 3.81,0 7.72,-1.9 3.91,-1.91 7.04,-5.78 0.82,-0.95 1.84,-0.95 m 31.14,0.13 q 0.88,0 1.39,0.85 0.51,0.85 0.51,2.14 0,1.57 -0.47,2.45 -0.48,0.89 -1.5,1.57 l -13.05,8.77 q -2.59,14.07 -6.77,22.13 -4.18,8.06 -10.64,8.06 -3.47,0 -5.65,-2.14 -2.17,-2.14 -2.17,-5.61 0,-3.2 1.46,-6.53 1.46,-3.33 5.44,-7.65 3.98,-4.32 11.25,-9.89 l 0.21,-1.57 q 0.47,-2.51 1.09,-7.21 -1.36,4.9 -3.81,7.45 -2.45,2.55 -5.17,2.55 -3.06,0 -5,-2.82 -1.94,-2.82 -1.94,-7.04 0,-5.1 0.68,-9.35 0.68,-4.25 2.25,-9.01 0.68,-2.04 1.9,-2.92 1.23,-0.89 3.88,-0.89 1.49,0 2.07,0.48 0.58,0.47 0.58,1.43 0,0.54 -0.75,3.67 -0.68,2.51 -1.09,4.55 -0.54,2.79 -0.95,5.34 -0.41,2.55 -0.41,4.18 0,2.59 1.43,2.59 1.02,0 2.55,-2.04 1.53,-2.04 3.27,-6.19 1.73,-4.15 3.36,-10.2 0.55,-2.04 1.67,-2.92 1.12,-0.89 3.36,-0.89 1.57,0 2.18,0.41 0.61,0.41 0.61,1.36 0,1.7 -1.77,11.7 l -1.76,10.94 q 5.23,-3.94 10.2,-7.2 0.88,-0.55 1.56,-0.55 m -29.78,39.37 q 1.7,0 3.8,-3.94 2.11,-3.94 4.22,-13.12 -5.24,4.42 -7.58,8.05 -2.35,3.64 -2.35,6.36 0,1.16 0.44,1.91 0.45,0.74 1.47,0.74"
           id="path15"
           style="fill:#1a90c8;fill-opacity:1" /></g></g></g></svg>
